<?xml version="1.0" encoding="utf-8"?>
<!-- Generator: Adobe Illustrator 24.2.1, SVG Export Plug-In . SVG Version: 6.00 Build 0)  -->
<svg version="1.1" id="Layer_1" xmlns="http://www.w3.org/2000/svg" xmlns:xlink="http://www.w3.org/1999/xlink" x="0px" y="0px"
	 viewBox="0 0 532.7 417.3" style="enable-background:new 0 0 532.7 417.3;" xml:space="preserve">
<style type="text/css">
	.st0{fill:#262626;}
	.st1{fill:#FFFFFF;}
	.st2{fill:#4D8B55;}
	.st3{fill:#DBB98D;}
</style>
<g>
	<path class="st0" d="M5.6,254.6c41.7-0.1,81.8,4.8,120,21.4c32.5,14.1,65.1,28.4,98.4,40.4c18.3,6.6,38.1,10.6,57.6,12.5
		c43.2,4.3,79.4-12.1,109.8-42.3c5.1-5,9.9-10.3,15.4-15.1c-9.5,32.6-26.5,60.7-50.5,84.5c-38.6,38.2-85.2,59-139.5,61
		C107.1,421.3,24,342.7,5.6,254.6z"/>
	<path class="st1" d="M417.1,218.7c-2.6,0.1-4.7,0.3-6.8,0.3c-7.2,0-14.5,0.1-21.7,0c-4.9,0-11.7,1.7-14.3-0.8
		c-2.6-2.6-1-9.4-1.2-14.3c-2.9-65.5-34.5-113.3-91.9-143.1C219.7,28.9,143,42.3,93.7,91c-30.1,29.8-46.9,65.7-49.2,108.1
		c-0.4,6.7-0.6,13.3-0.9,20.3c-13.4,0-26.5-0.2-39.6,0.1c-4.3,0.1-4.2-2.5-3.9-5.1c1.5-16.5,1.9-33.3,5-49.5
		C14.1,118.5,38,80.5,73.5,50c30.1-25.9,65-41.7,104.5-47.5c45.1-6.7,88.1,0.3,128,21.8c57.3,30.9,93.2,78.8,107,142.5
		c3.2,14.6,3.1,30,4.4,45C417.7,213.9,417.3,216.1,417.1,218.7z"/>
	<path class="st2" d="M296.9,241.4c2,0.9,4.1,2.6,6.1,2.6c31.9-0.2,63.6,1.4,95,7.7c0.8,0.2,1.6,0.4,3.4,0.9c-3.2,4-5.9,7.6-8.9,11
		c-20.1,23.2-43.7,41.3-74.4,48c-20.8,4.5-41.4,2.9-62-1.6c-35.4-7.8-68-22.9-102.4-38.3c41-17.6,83-22.7,125.3-26.7
		c-0.5-0.6-0.9-1.1-1.4-1.7c3.1-3.1,5.6-7.4,9.3-9.1c4.2-1.9,7.9,0.9,9.7,5.4C296.7,240.3,296.8,240.8,296.9,241.4z"/>
	<path class="st1" d="M424.5,276c2.4-8.9,4.8-17.9,7.2-26.9c6.3,3.2,12,7.2,18.3,9c17.4,4.8,31.7-1.4,43.7-14.3
		c14.9-16,18.5-43.1,7.9-61.2c-13.6-23.1-42.3-27.6-63.4-9.8c-1.5,1.2-2.9,2.5-4.9,4.3c-1.7-7.6-3.1-14.6-5-21.5s-4.2-13.7-6.5-20.9
		c18.8,0,37.1-1.6,55.1,0.4c27.4,3.1,47.9,24.3,53.9,52.2c7.6,35.4-7.9,71.7-38.7,90.7C471.1,290.9,441.8,290.1,424.5,276z"/>
	<path class="st1" d="M196.2,94.9c8.7,0,16.3,0,24.8,0c0.1,2.4,0.3,4.7,0.3,7.1c0,25.9-0.1,51.8,0.2,77.7c0,2.8,1.4,6.5,3.5,8.3
		c11.9,10.3,13.4,27.3,2.9,38.6c-10.2,11.1-27.7,10.8-38.9-0.1c-2-2-5.5-3.5-8.3-3.5c-20.8-0.3-41.7-0.1-62.5-0.1c-2.2,0-4.3,0-7,0
		c0-8.4,0-16.4,0-25.1c2.7,0,5,0,7.3,0c20.2,0,40.4-0.1,60.6,0.1c3.9,0,6.8-0.7,8.5-4.4c0.3-0.6,0.6-1.3,1.1-1.6
		c8.9-4.8,7.5-13.2,7.5-21.2c-0.1-22.6,0-45.2,0-67.8C196.2,100.4,196.2,98,196.2,94.9z"/>
	<path class="st1" d="M366.3,208.8c-0.1,6.8-5.6,12.4-12,12.4c-5.7-0.1-11.6-6.3-11.6-12.3c0-6.3,5.9-12.2,12.3-12.2
		C360.9,196.7,366.4,202.5,366.3,208.8z"/>
	<path class="st1" d="M207.7,71.1c-6-0.4-11.3-6.5-10.8-12.6c0.6-6.9,6-11.6,12.9-11.1c6.3,0.4,11.4,6.2,11,12.4
		C220.3,66.1,214,71.5,207.7,71.1z"/>
	<path class="st1" d="M74.9,208.9c-0.1,6-5.7,11.8-11.7,11.9c-6.6,0.1-12-5.3-12-12c0-6.8,5.5-12.1,12.1-11.9
		C69.4,197.1,75,202.9,74.9,208.9z"/>
	<path class="st3" d="M296.9,241.4c-0.1-0.6-0.2-1.1-0.3-1.7C296.7,240.3,296.8,240.8,296.9,241.4z"/>
</g>
</svg>
